<svg width="22" height="22" viewBox="0 0 22 22" fill="none" xmlns="http://www.w3.org/2000/svg">
<path fill-rule="evenodd" clip-rule="evenodd" d="M12.2301 21.932C17.7263 21.3204 22 16.6593 22 11C22 4.92487 17.0751 0 11 0C4.92487 0 0 4.92487 0 11C0 16.0701 3.43024 20.3391 8.09657 21.6128V14.2179H5.74529V10.7362H8.09657V9.2362C8.09657 5.35833 9.85101 3.56275 13.6561 3.56275C14.3763 3.56275 15.62 3.70389 16.1308 3.84503V6.99885C15.8618 6.97163 15.3922 6.95771 14.8137 6.95771C12.9453 6.95771 12.2251 7.66404 12.2251 9.50518V10.7362H15.9485L15.3105 14.2172H12.2301V21.932Z" fill="white"/>
</svg>
