<svg width="32" height="32" viewBox="0 0 32 32" fill="none" xmlns="http://www.w3.org/2000/svg">
<g clip-path="url(#clip0_3493_30990)">
<path d="M24.9456 5.5H7.0504C6.19317 5.5 5.5 6.17676 5.5 7.01348V24.9825C5.5 25.8192 6.19317 26.5001 7.0504 26.5001H24.9456C25.8028 26.5001 26.5001 25.8192 26.5001 24.9866V7.01348C26.5001 6.17676 25.8028 5.5 24.9456 5.5ZM11.7303 23.3952H8.6131V13.3709H11.7303V23.3952ZM10.1717 12.0051C9.17091 12.0051 8.3629 11.1971 8.3629 10.2004C8.3629 9.20372 9.17091 8.39571 10.1717 8.39571C11.1684 8.39571 11.9764 9.20372 11.9764 10.2004C11.9764 11.193 11.1684 12.0051 10.1717 12.0051ZM23.3952 23.3952H20.2821V18.5225C20.2821 17.3618 20.2616 15.8647 18.662 15.8647C17.0418 15.8647 16.7957 17.1321 16.7957 18.4405V23.3952H13.6867V13.3709H16.6727V14.7408H16.7137C17.128 13.9533 18.1452 13.1207 19.6586 13.1207C22.8127 13.1207 23.3952 15.1961 23.3952 17.895V23.3952V23.3952Z" fill="white"/>
</g>
<defs>
<clipPath id="clip0_3493_30990">
<rect width="21.0001" height="21.0001" fill="white" transform="translate(5.5 5.5)"/>
</clipPath>
</defs>
</svg>
